<?xml version="1.0" encoding="UTF-8" standalone="no"?>
<svg
   height="512"
   viewBox="0 -288 512 512"
   data-glyph-idx="1502"
   data-glyph-name="uni306F"
   id="popupGlyphSvg"
   version="1.1"
   sodipodi:docname="preprocess-cleanup-doubleflare.svg"
   width="512"
   inkscape:version="1.4 (86a8ad7, 2024-10-11)"
   xmlns:inkscape="http://www.inkscape.org/namespaces/inkscape"
   xmlns:sodipodi="http://sodipodi.sourceforge.net/DTD/sodipodi-0.dtd"
   xmlns="http://www.w3.org/2000/svg"
   xmlns:svg="http://www.w3.org/2000/svg">
  <defs
     id="defs305" />
  <sodipodi:namedview
     id="namedview305"
     pagecolor="#dbdbdb"
     bordercolor="#ffffff"
     borderopacity="1"
     inkscape:showpageshadow="0"
     inkscape:pageopacity="0"
     inkscape:pagecheckerboard="1"
     inkscape:deskcolor="#828282"
     inkscape:zoom="4.1176273"
     inkscape:cx="264.59413"
     inkscape:cy="79.414666"
     inkscape:window-width="2560"
     inkscape:window-height="1346"
     inkscape:window-x="-11"
     inkscape:window-y="-11"
     inkscape:window-maximized="1"
     inkscape:current-layer="popupGlyphSvg" />
  <path
     class="contour-fill"
     d="m -41,-89 1,144 c 59,4 119,6 179,6 122,-1 250,-9 354,-24 V -114 C 387,-91 261,-80 138,-80 77,-80 17,-83 -41,-89 Z M 357,-252 H 184 c 4,21 8,54 8,69 1,27 2,96 2,176 0,151 13,308 13,375 0,55 -19,81 -67,81 -43,0 -78,-12 -78,-47 0,-32 31,-50 78,-50 106,0 206,66 327,179 L 549,404 C 474,334 351,235 152,235 12,235 -80,307 -80,419 c 0,113 93,173 234,173 149,0 209,-75 209,-193 0,-90 -16,-205 -16,-406 0,-80 2,-147 4,-178 1,-22 3,-48 6,-67 z m -485,13 -167,-14 c -1,37 -7,83 -11,113 -11,74 -39,262 -39,415 0,136 20,253 41,321 l 137,-10 c -1,-16 -1,-34 -1,-45 0,-10 3,-33 6,-47 12,-58 42,-159 72,-249 l -73,-59 c -13,30 -26,49 -38,78 -1,-4 -1,-20 -1,-23 0,-93 35,-326 47,-378 4,-18 18,-80 27,-102 z"
     id="path157"
     style="stroke:none;fill:none" />
  <path
     class="contour-stroke"
     d="m -41,-89 1,144 c 59,4 119,6 179,6 122,-1 250,-9 354,-24 V -114 C 387,-91 261,-80 138,-80 77,-80 17,-83 -41,-89 Z M 357,-252 H 184 c 4,21 8,54 8,69 1,27 2,96 2,176 0,151 13,308 13,375 0,55 -19,81 -67,81 -43,0 -78,-12 -78,-47 0,-32 31,-50 78,-50 106,0 206,66 327,179 L 549,404 C 474,334 351,235 152,235 12,235 -80,307 -80,419 c 0,113 93,173 234,173 149,0 209,-75 209,-193 0,-90 -16,-205 -16,-406 0,-80 2,-147 4,-178 1,-22 3,-48 6,-67 z m -485,13 -167,-14 c -1,37 -7,83 -11,113 -11,74 -39,262 -39,415 0,136 20,253 41,321 l 137,-10 c -1,-16 -1,-34 -1,-45 0,-10 3,-33 6,-47 12,-58 42,-159 72,-249 l -73,-59 c -13,30 -26,49 -38,78 -1,-4 -1,-20 -1,-23 0,-93 35,-326 47,-378 4,-18 18,-80 27,-102 z"
     id="path158"
     style="fill:#858585;fill-opacity:0.52380955;opacity:1;stroke:#808080;stroke-opacity:1" />
  <line
     class="control-vector"
     x1="-40"
     y1="55"
     x2="19"
     y2="59"
     id="line158" />
  <line
     class="control-vector"
     x1="79"
     y1="61"
     x2="139"
     y2="61"
     id="line159" />
  <line
     class="control-vector"
     x1="139"
     y1="61"
     x2="261"
     y2="60"
     id="line160" />
  <line
     class="control-vector"
     x1="389"
     y1="52"
     x2="493"
     y2="37"
     id="line161" />
  <line
     class="control-vector"
     x1="493"
     y1="-114"
     x2="387"
     y2="-91"
     id="line162" />
  <line
     class="control-vector"
     x1="261"
     y1="-80"
     x2="138"
     y2="-80"
     id="line163" />
  <line
     class="control-vector"
     x1="138"
     y1="-80"
     x2="77"
     y2="-80"
     id="line164" />
  <line
     class="control-vector"
     x1="17"
     y1="-83"
     x2="-41"
     y2="-89"
     id="line165" />
  <line
     class="control-vector"
     x1="184"
     y1="-252"
     x2="188"
     y2="-231"
     id="line166"
     style="stroke:#ffffff;stroke-opacity:1;stroke-width:1.6;stroke-dasharray:1.60000002,1.60000002;stroke-dashoffset:2.4000001" />
  <line
     class="control-vector"
     x1="192"
     y1="-198"
     x2="192"
     y2="-183"
     id="line167"
     style="stroke:#ffffff;stroke-opacity:1;stroke-width:1.6;stroke-dasharray:1.60000002,1.60000002;stroke-dashoffset:2.4000001" />
  <line
     class="control-vector"
     x1="192"
     y1="-183"
     x2="193"
     y2="-156"
     id="line168"
     style="stroke:#ffffff;stroke-opacity:1;stroke-width:1.6;stroke-dasharray:1.60000002,1.60000002;stroke-dashoffset:2.4000001" />
  <line
     class="control-vector"
     x1="194"
     y1="-87"
     x2="194"
     y2="-7"
     id="line169" />
  <line
     class="control-vector"
     x1="194"
     y1="-7"
     x2="194"
     y2="144"
     id="line170" />
  <line
     class="control-vector"
     x1="207"
     y1="301"
     x2="207"
     y2="368"
     id="line171" />
  <line
     class="control-vector"
     x1="207"
     y1="368"
     x2="207"
     y2="423"
     id="line172" />
  <line
     class="control-vector"
     x1="188"
     y1="449"
     x2="140"
     y2="449"
     id="line173" />
  <line
     class="control-vector"
     x1="140"
     y1="449"
     x2="97"
     y2="449"
     id="line174" />
  <line
     class="control-vector"
     x1="62"
     y1="437"
     x2="62"
     y2="402"
     id="line175" />
  <line
     class="control-vector"
     x1="62"
     y1="402"
     x2="62"
     y2="370"
     id="line176" />
  <line
     class="control-vector"
     x1="93"
     y1="352"
     x2="140"
     y2="352"
     id="line177" />
  <line
     class="control-vector"
     x1="140"
     y1="352"
     x2="246"
     y2="352"
     id="line178" />
  <line
     class="control-vector"
     x1="346"
     y1="418"
     x2="467"
     y2="531"
     id="line179" />
  <line
     class="control-vector"
     x1="549"
     y1="404"
     x2="474"
     y2="334"
     id="line180" />
  <line
     class="control-vector"
     x1="351"
     y1="235"
     x2="152"
     y2="235"
     id="line181" />
  <line
     class="control-vector"
     x1="152"
     y1="235"
     x2="12"
     y2="235"
     id="line182" />
  <line
     class="control-vector"
     x1="-80"
     y1="307"
     x2="-80"
     y2="419"
     id="line183" />
  <line
     class="control-vector"
     x1="-80"
     y1="419"
     x2="-80"
     y2="532"
     id="line184" />
  <line
     class="control-vector"
     x1="13"
     y1="592"
     x2="154"
     y2="592"
     id="line185" />
  <line
     class="control-vector"
     x1="154"
     y1="592"
     x2="303"
     y2="592"
     id="line186" />
  <line
     class="control-vector"
     x1="363"
     y1="517"
     x2="363"
     y2="399"
     id="line187" />
  <line
     class="control-vector"
     x1="363"
     y1="399"
     x2="363"
     y2="309"
     id="line188" />
  <line
     class="control-vector"
     x1="347"
     y1="194"
     x2="347"
     y2="-7"
     id="line189" />
  <line
     class="control-vector"
     x1="347"
     y1="-7"
     x2="347"
     y2="-87"
     id="line190" />
  <line
     class="control-vector"
     x1="349"
     y1="-154"
     x2="351"
     y2="-185"
     id="line191"
     style="stroke:#ffffff;stroke-opacity:1;stroke-width:1.6;stroke-dasharray:1.60000002,1.60000002;stroke-dashoffset:2.4000001" />
  <line
     class="control-vector"
     x1="351"
     y1="-185"
     x2="352"
     y2="-207"
     id="line192"
     style="stroke:#ffffff;stroke-opacity:1;stroke-width:1.6;stroke-dasharray:1.60000002,1.60000002;stroke-dashoffset:2.4000001" />
  <line
     class="control-vector"
     x1="354"
     y1="-233"
     x2="357"
     y2="-252"
     id="line193"
     style="stroke:#ffffff;stroke-opacity:1;stroke-width:1.6;stroke-dasharray:1.60000002,1.60000002;stroke-dashoffset:2.4000001" />
  <line
     class="control-vector"
     x1="-295"
     y1="-253"
     x2="-296"
     y2="-216"
     id="line194" />
  <line
     class="control-vector"
     x1="-302"
     y1="-170"
     x2="-306"
     y2="-140"
     id="line195" />
  <line
     class="control-vector"
     x1="-306"
     y1="-140"
     x2="-317"
     y2="-66"
     id="line196" />
  <line
     class="control-vector"
     x1="-345"
     y1="122"
     x2="-345"
     y2="275"
     id="line197" />
  <line
     class="control-vector"
     x1="-345"
     y1="275"
     x2="-345"
     y2="411"
     id="line198" />
  <line
     class="control-vector"
     x1="-325"
     y1="528"
     x2="-304"
     y2="596"
     id="line199" />
  <line
     class="control-vector"
     x1="-167"
     y1="586"
     x2="-168"
     y2="570"
     id="line200" />
  <line
     class="control-vector"
     x1="-168"
     y1="552"
     x2="-168"
     y2="541"
     id="line201" />
  <line
     class="control-vector"
     x1="-168"
     y1="541"
     x2="-168"
     y2="531"
     id="line202" />
  <line
     class="control-vector"
     x1="-165"
     y1="508"
     x2="-162"
     y2="494"
     id="line203" />
  <line
     class="control-vector"
     x1="-162"
     y1="494"
     x2="-150"
     y2="436"
     id="line204" />
  <line
     class="control-vector"
     x1="-120"
     y1="335"
     x2="-90"
     y2="245"
     id="line205" />
  <line
     class="control-vector"
     x1="-163"
     y1="186"
     x2="-176"
     y2="216"
     id="line206" />
  <line
     class="control-vector"
     x1="-189"
     y1="235"
     x2="-201"
     y2="264"
     id="line207" />
  <line
     class="control-vector"
     x1="-201"
     y1="264"
     x2="-202"
     y2="260"
     id="line208" />
  <line
     class="control-vector"
     x1="-202"
     y1="244"
     x2="-202"
     y2="241"
     id="line209" />
  <line
     class="control-vector"
     x1="-202"
     y1="241"
     x2="-202"
     y2="148"
     id="line210" />
  <line
     class="control-vector"
     x1="-167"
     y1="-85"
     x2="-155"
     y2="-137"
     id="line211" />
  <line
     class="control-vector"
     x1="-155"
     y1="-137"
     x2="-151"
     y2="-155"
     id="line212" />
  <line
     class="control-vector"
     x1="-137"
     y1="-217"
     x2="-128"
     y2="-239"
     id="line213" />
  <circle
     class="start-point"
     cx="-41"
     cy="89"
     r="5"
     id="circle213"
     transform="scale(1,-1)">
    <title
       id="title213">contour0 node0
386, 627</title>
  </circle>
  <circle
     class="corner-point"
     cx="-40"
     cy="-55"
     r="5"
     id="circle214"
     transform="scale(1,-1)">
    <title
       id="title214">contour0 node1
387, 483</title>
  </circle>
  <circle
     class="control-point"
     cx="19"
     cy="-59"
     r="4"
     id="circle215"
     transform="scale(1,-1)">
    <title
       id="title215">contour0 node2
446, 479</title>
  </circle>
  <circle
     class="control-point"
     cx="79"
     cy="-61"
     r="4"
     id="circle216"
     transform="scale(1,-1)">
    <title
       id="title216">contour0 node3
506, 477</title>
  </circle>
  <circle
     class="corner-point"
     cx="139"
     cy="-61"
     r="5"
     id="circle217"
     transform="scale(1,-1)">
    <title
       id="title217">contour0 node4
566, 477</title>
  </circle>
  <circle
     class="control-point"
     cx="261"
     cy="-60"
     r="4"
     id="circle218"
     transform="scale(1,-1)">
    <title
       id="title218">contour0 node5
688, 478</title>
  </circle>
  <circle
     class="control-point"
     cx="389"
     cy="-52"
     r="4"
     id="circle219"
     transform="scale(1,-1)">
    <title
       id="title219">contour0 node6
816, 486</title>
  </circle>
  <circle
     class="corner-point"
     cx="493"
     cy="-37"
     r="5"
     id="circle220"
     transform="scale(1,-1)">
    <title
       id="title220">contour0 node7
920, 501</title>
  </circle>
  <circle
     class="corner-point"
     cx="493"
     cy="114"
     r="5"
     id="circle221"
     transform="scale(1,-1)">
    <title
       id="title221">contour0 node8
920, 652</title>
  </circle>
  <circle
     class="control-point"
     cx="387"
     cy="91"
     r="4"
     id="circle222"
     transform="scale(1,-1)">
    <title
       id="title222">contour0 node9
814, 629</title>
  </circle>
  <circle
     class="control-point"
     cx="261"
     cy="80"
     r="4"
     id="circle223"
     transform="scale(1,-1)">
    <title
       id="title223">contour0 node10
688, 618</title>
  </circle>
  <circle
     class="corner-point"
     cx="138"
     cy="80"
     r="5"
     id="circle224"
     transform="scale(1,-1)">
    <title
       id="title224">contour0 node11
565, 618</title>
  </circle>
  <circle
     class="control-point"
     cx="77"
     cy="80"
     r="4"
     id="circle225"
     transform="scale(1,-1)">
    <title
       id="title225">contour0 node12
504, 618</title>
  </circle>
  <circle
     class="control-point"
     cx="17"
     cy="83"
     r="4"
     id="circle226"
     transform="scale(1,-1)">
    <title
       id="title226">contour0 node13
444, 621</title>
  </circle>
  <circle
     class="start-point"
     cx="357"
     cy="252"
     id="circle227"
     transform="scale(1,-1)"
     style="fill:#ff0062;fill-opacity:1"
     r="3">
    <title
       id="title227">contour1 node0
784, 790</title>
  </circle>
  <circle
     class="corner-point"
     cx="184"
     cy="252"
     id="circle228"
     transform="scale(1,-1)"
     style="fill:#ff0062;fill-opacity:1"
     r="3">
    <title
       id="title228">contour1 node1
611, 790</title>
  </circle>
  <circle
     class="control-point"
     cx="188"
     cy="231"
     id="circle229"
     transform="scale(1,-1)"
     style="fill:#95ff00;fill-opacity:1"
     r="2">
    <title
       id="title229">contour1 node2
615, 769</title>
  </circle>
  <circle
     class="control-point"
     cx="192"
     cy="198"
     id="circle230"
     transform="scale(1,-1)"
     style="fill:#95ff00;fill-opacity:1"
     r="2">
    <title
       id="title230">contour1 node3
619, 736</title>
  </circle>
  <circle
     class="corner-point"
     cx="192"
     cy="183"
     id="circle231"
     transform="scale(1,-1)"
     style="fill:#ff0062;fill-opacity:1"
     r="3">
    <title
       id="title231">contour1 node4
619, 721</title>
  </circle>
  <circle
     class="control-point"
     cx="193"
     cy="156"
     id="circle232"
     transform="scale(1,-1)"
     style="fill:#95ff00;fill-opacity:1"
     r="2">
    <title
       id="title232">contour1 node5
620, 694</title>
  </circle>
  <circle
     class="control-point"
     cx="194"
     cy="87"
     r="4"
     id="circle233"
     transform="scale(1,-1)">
    <title
       id="title233">contour1 node6
621, 625</title>
  </circle>
  <circle
     class="corner-point"
     cx="194"
     cy="7"
     r="5"
     id="circle234"
     transform="scale(1,-1)">
    <title
       id="title234">contour1 node7
621, 545</title>
  </circle>
  <circle
     class="control-point"
     cx="194"
     cy="-144"
     r="4"
     id="circle235"
     transform="scale(1,-1)">
    <title
       id="title235">contour1 node8
621, 394</title>
  </circle>
  <circle
     class="control-point"
     cx="207"
     cy="-301"
     r="4"
     id="circle236"
     transform="scale(1,-1)">
    <title
       id="title236">contour1 node9
634, 237</title>
  </circle>
  <circle
     class="corner-point"
     cx="207"
     cy="-368"
     r="5"
     id="circle237"
     transform="scale(1,-1)">
    <title
       id="title237">contour1 node10
634, 170</title>
  </circle>
  <circle
     class="control-point"
     cx="207"
     cy="-423"
     r="4"
     id="circle238"
     transform="scale(1,-1)">
    <title
       id="title238">contour1 node11
634, 115</title>
  </circle>
  <circle
     class="control-point"
     cx="188"
     cy="-449"
     r="4"
     id="circle239"
     transform="scale(1,-1)">
    <title
       id="title239">contour1 node12
615, 89</title>
  </circle>
  <circle
     class="corner-point"
     cx="140"
     cy="-449"
     r="5"
     id="circle240"
     transform="scale(1,-1)">
    <title
       id="title240">contour1 node13
567, 89</title>
  </circle>
  <circle
     class="control-point"
     cx="97"
     cy="-449"
     r="4"
     id="circle241"
     transform="scale(1,-1)">
    <title
       id="title241">contour1 node14
524, 89</title>
  </circle>
  <circle
     class="control-point"
     cx="62"
     cy="-437"
     r="4"
     id="circle242"
     transform="scale(1,-1)">
    <title
       id="title242">contour1 node15
489, 101</title>
  </circle>
  <circle
     class="corner-point"
     cx="62"
     cy="-402"
     r="5"
     id="circle243"
     transform="scale(1,-1)">
    <title
       id="title243">contour1 node16
489, 136</title>
  </circle>
  <circle
     class="control-point"
     cx="62"
     cy="-370"
     r="4"
     id="circle244"
     transform="scale(1,-1)">
    <title
       id="title244">contour1 node17
489, 168</title>
  </circle>
  <circle
     class="control-point"
     cx="93"
     cy="-352"
     r="4"
     id="circle245"
     transform="scale(1,-1)">
    <title
       id="title245">contour1 node18
520, 186</title>
  </circle>
  <circle
     class="corner-point"
     cx="140"
     cy="-352"
     r="5"
     id="circle246"
     transform="scale(1,-1)">
    <title
       id="title246">contour1 node19
567, 186</title>
  </circle>
  <circle
     class="control-point"
     cx="246"
     cy="-352"
     r="4"
     id="circle247"
     transform="scale(1,-1)">
    <title
       id="title247">contour1 node20
673, 186</title>
  </circle>
  <circle
     class="control-point"
     cx="346"
     cy="-418"
     r="4"
     id="circle248"
     transform="scale(1,-1)">
    <title
       id="title248">contour1 node21
773, 120</title>
  </circle>
  <circle
     class="corner-point"
     cx="467"
     cy="-531"
     r="5"
     id="circle249"
     transform="scale(1,-1)">
    <title
       id="title249">contour1 node22
894, 7</title>
  </circle>
  <circle
     class="corner-point"
     cx="549"
     cy="-404"
     r="5"
     id="circle250"
     transform="scale(1,-1)">
    <title
       id="title250">contour1 node23
976, 134</title>
  </circle>
  <circle
     class="control-point"
     cx="474"
     cy="-334"
     r="4"
     id="circle251"
     transform="scale(1,-1)">
    <title
       id="title251">contour1 node24
901, 204</title>
  </circle>
  <circle
     class="control-point"
     cx="351"
     cy="-235"
     r="4"
     id="circle252"
     transform="scale(1,-1)">
    <title
       id="title252">contour1 node25
778, 303</title>
  </circle>
  <circle
     class="corner-point"
     cx="152"
     cy="-235"
     r="5"
     id="circle253"
     transform="scale(1,-1)">
    <title
       id="title253">contour1 node26
579, 303</title>
  </circle>
  <circle
     class="control-point"
     cx="12"
     cy="-235"
     r="4"
     id="circle254"
     transform="scale(1,-1)">
    <title
       id="title254">contour1 node27
439, 303</title>
  </circle>
  <circle
     class="control-point"
     cx="-80"
     cy="-307"
     r="4"
     id="circle255"
     transform="scale(1,-1)">
    <title
       id="title255">contour1 node28
347, 231</title>
  </circle>
  <circle
     class="corner-point"
     cx="-80"
     cy="-419"
     r="5"
     id="circle256"
     transform="scale(1,-1)">
    <title
       id="title256">contour1 node29
347, 119</title>
  </circle>
  <circle
     class="control-point"
     cx="-80"
     cy="-532"
     r="4"
     id="circle257"
     transform="scale(1,-1)">
    <title
       id="title257">contour1 node30
347, 6</title>
  </circle>
  <circle
     class="control-point"
     cx="13"
     cy="-592"
     r="4"
     id="circle258"
     transform="scale(1,-1)">
    <title
       id="title258">contour1 node31
440, -54</title>
  </circle>
  <circle
     class="corner-point"
     cx="154"
     cy="-592"
     r="5"
     id="circle259"
     transform="scale(1,-1)">
    <title
       id="title259">contour1 node32
581, -54</title>
  </circle>
  <circle
     class="control-point"
     cx="303"
     cy="-592"
     r="4"
     id="circle260"
     transform="scale(1,-1)">
    <title
       id="title260">contour1 node33
730, -54</title>
  </circle>
  <circle
     class="control-point"
     cx="363"
     cy="-517"
     r="4"
     id="circle261"
     transform="scale(1,-1)">
    <title
       id="title261">contour1 node34
790, 21</title>
  </circle>
  <circle
     class="corner-point"
     cx="363"
     cy="-399"
     r="5"
     id="circle262"
     transform="scale(1,-1)">
    <title
       id="title262">contour1 node35
790, 139</title>
  </circle>
  <circle
     class="control-point"
     cx="363"
     cy="-309"
     r="4"
     id="circle263"
     transform="scale(1,-1)">
    <title
       id="title263">contour1 node36
790, 229</title>
  </circle>
  <circle
     class="control-point"
     cx="347"
     cy="-194"
     r="4"
     id="circle264"
     transform="scale(1,-1)">
    <title
       id="title264">contour1 node37
774, 344</title>
  </circle>
  <circle
     class="corner-point"
     cx="347"
     cy="7"
     r="5"
     id="circle265"
     transform="scale(1,-1)">
    <title
       id="title265">contour1 node38
774, 545</title>
  </circle>
  <circle
     class="control-point"
     cx="347"
     cy="87"
     r="4"
     id="circle266"
     transform="scale(1,-1)">
    <title
       id="title266">contour1 node39
774, 625</title>
  </circle>
  <circle
     class="control-point"
     cx="349"
     cy="154"
     id="circle267"
     transform="scale(1,-1)"
     style="fill:#95ff00;fill-opacity:1"
     r="2">
    <title
       id="title267">contour1 node40
776, 692</title>
  </circle>
  <circle
     class="corner-point"
     cx="351"
     cy="185"
     id="circle268"
     transform="scale(1,-1)"
     style="fill:#ff0062;fill-opacity:1"
     r="3">
    <title
       id="title268">contour1 node41
778, 723</title>
  </circle>
  <circle
     class="control-point"
     cx="352"
     cy="207"
     id="circle269"
     transform="scale(1,-1)"
     style="fill:#95ff00;fill-opacity:1"
     r="2">
    <title
       id="title269">contour1 node42
779, 745</title>
  </circle>
  <circle
     class="control-point"
     cx="354"
     cy="233"
     id="circle270"
     transform="scale(1,-1)"
     style="fill:#95ff00;fill-opacity:1"
     r="2">
    <title
       id="title270">contour1 node43
781, 771</title>
  </circle>
  <circle
     class="start-point"
     cx="-128"
     cy="239"
     r="5"
     id="circle271"
     transform="scale(1,-1)">
    <title
       id="title271">contour2 node0
299, 777</title>
  </circle>
  <circle
     class="corner-point"
     cx="-295"
     cy="253"
     r="5"
     id="circle272"
     transform="scale(1,-1)">
    <title
       id="title272">contour2 node1
132, 791</title>
  </circle>
  <circle
     class="control-point"
     cx="-296"
     cy="216"
     r="4"
     id="circle273"
     transform="scale(1,-1)">
    <title
       id="title273">contour2 node2
131, 754</title>
  </circle>
  <circle
     class="control-point"
     cx="-302"
     cy="170"
     r="4"
     id="circle274"
     transform="scale(1,-1)">
    <title
       id="title274">contour2 node3
125, 708</title>
  </circle>
  <circle
     class="corner-point"
     cx="-306"
     cy="140"
     r="5"
     id="circle275"
     transform="scale(1,-1)">
    <title
       id="title275">contour2 node4
121, 678</title>
  </circle>
  <circle
     class="control-point"
     cx="-317"
     cy="66"
     r="4"
     id="circle276"
     transform="scale(1,-1)">
    <title
       id="title276">contour2 node5
110, 604</title>
  </circle>
  <circle
     class="control-point"
     cx="-345"
     cy="-122"
     r="4"
     id="circle277"
     transform="scale(1,-1)">
    <title
       id="title277">contour2 node6
82, 416</title>
  </circle>
  <circle
     class="corner-point"
     cx="-345"
     cy="-275"
     r="5"
     id="circle278"
     transform="scale(1,-1)">
    <title
       id="title278">contour2 node7
82, 263</title>
  </circle>
  <circle
     class="control-point"
     cx="-345"
     cy="-411"
     r="4"
     id="circle279"
     transform="scale(1,-1)">
    <title
       id="title279">contour2 node8
82, 127</title>
  </circle>
  <circle
     class="control-point"
     cx="-325"
     cy="-528"
     r="4"
     id="circle280"
     transform="scale(1,-1)">
    <title
       id="title280">contour2 node9
102, 10</title>
  </circle>
  <circle
     class="corner-point"
     cx="-304"
     cy="-596"
     r="5"
     id="circle281"
     transform="scale(1,-1)">
    <title
       id="title281">contour2 node10
123, -58</title>
  </circle>
  <circle
     class="corner-point"
     cx="-167"
     cy="-586"
     r="5"
     id="circle282"
     transform="scale(1,-1)">
    <title
       id="title282">contour2 node11
260, -48</title>
  </circle>
  <circle
     class="control-point"
     cx="-168"
     cy="-570"
     r="4"
     id="circle283"
     transform="scale(1,-1)">
    <title
       id="title283">contour2 node12
259, -32</title>
  </circle>
  <circle
     class="control-point"
     cx="-168"
     cy="-552"
     r="4"
     id="circle284"
     transform="scale(1,-1)">
    <title
       id="title284">contour2 node13
259, -14</title>
  </circle>
  <circle
     class="corner-point"
     cx="-168"
     cy="-541"
     r="5"
     id="circle285"
     transform="scale(1,-1)">
    <title
       id="title285">contour2 node14
259, -3</title>
  </circle>
  <circle
     class="control-point"
     cx="-168"
     cy="-531"
     r="4"
     id="circle286"
     transform="scale(1,-1)">
    <title
       id="title286">contour2 node15
259, 7</title>
  </circle>
  <circle
     class="control-point"
     cx="-165"
     cy="-508"
     r="4"
     id="circle287"
     transform="scale(1,-1)">
    <title
       id="title287">contour2 node16
262, 30</title>
  </circle>
  <circle
     class="corner-point"
     cx="-162"
     cy="-494"
     r="5"
     id="circle288"
     transform="scale(1,-1)">
    <title
       id="title288">contour2 node17
265, 44</title>
  </circle>
  <circle
     class="control-point"
     cx="-150"
     cy="-436"
     r="4"
     id="circle289"
     transform="scale(1,-1)">
    <title
       id="title289">contour2 node18
277, 102</title>
  </circle>
  <circle
     class="control-point"
     cx="-120"
     cy="-335"
     r="4"
     id="circle290"
     transform="scale(1,-1)">
    <title
       id="title290">contour2 node19
307, 203</title>
  </circle>
  <circle
     class="corner-point"
     cx="-90"
     cy="-245"
     r="5"
     id="circle291"
     transform="scale(1,-1)">
    <title
       id="title291">contour2 node20
337, 293</title>
  </circle>
  <circle
     class="corner-point"
     cx="-163"
     cy="-186"
     r="5"
     id="circle292"
     transform="scale(1,-1)">
    <title
       id="title292">contour2 node21
264, 352</title>
  </circle>
  <circle
     class="control-point"
     cx="-176"
     cy="-216"
     r="4"
     id="circle293"
     transform="scale(1,-1)">
    <title
       id="title293">contour2 node22
251, 322</title>
  </circle>
  <circle
     class="control-point"
     cx="-189"
     cy="-235"
     r="4"
     id="circle294"
     transform="scale(1,-1)">
    <title
       id="title294">contour2 node23
238, 303</title>
  </circle>
  <circle
     class="corner-point"
     cx="-201"
     cy="-264"
     r="5"
     id="circle295"
     transform="scale(1,-1)">
    <title
       id="title295">contour2 node24
226, 274</title>
  </circle>
  <circle
     class="control-point"
     cx="-202"
     cy="-260"
     r="4"
     id="circle296"
     transform="scale(1,-1)">
    <title
       id="title296">contour2 node25
225, 278</title>
  </circle>
  <circle
     class="control-point"
     cx="-202"
     cy="-244"
     r="4"
     id="circle297"
     transform="scale(1,-1)">
    <title
       id="title297">contour2 node26
225, 294</title>
  </circle>
  <circle
     class="corner-point"
     cx="-202"
     cy="-241"
     r="5"
     id="circle298"
     transform="scale(1,-1)">
    <title
       id="title298">contour2 node27
225, 297</title>
  </circle>
  <circle
     class="control-point"
     cx="-202"
     cy="-148"
     r="4"
     id="circle299"
     transform="scale(1,-1)">
    <title
       id="title299">contour2 node28
225, 390</title>
  </circle>
  <circle
     class="control-point"
     cx="-167"
     cy="85"
     r="4"
     id="circle300"
     transform="scale(1,-1)">
    <title
       id="title300">contour2 node29
260, 623</title>
  </circle>
  <circle
     class="corner-point"
     cx="-155"
     cy="137"
     r="5"
     id="circle301"
     transform="scale(1,-1)">
    <title
       id="title301">contour2 node30
272, 675</title>
  </circle>
  <circle
     class="control-point"
     cx="-151"
     cy="155"
     r="4"
     id="circle302"
     transform="scale(1,-1)">
    <title
       id="title302">contour2 node31
276, 693</title>
  </circle>
  <circle
     class="control-point"
     cx="-137"
     cy="217"
     r="4"
     id="circle303"
     transform="scale(1,-1)">
    <title
       id="title303">contour2 node32
290, 755</title>
  </circle>
  <text
     xml:space="preserve"
     style="font-style:normal;font-variant:normal;font-weight:normal;font-stretch:normal;font-size:10.6667px;font-family:Nunito;-inkscape-font-specification:'Nunito, Normal';font-variant-ligatures:normal;font-variant-caps:normal;font-variant-numeric:normal;font-variant-east-asian:normal;text-align:start;writing-mode:lr-tb;direction:ltr;text-anchor:start;fill:#fffdfe;fill-opacity:0.7;stroke-width:8"
     x="356.51599"
     y="-152.48506"
     id="text305"><tspan
       sodipodi:role="line"
       id="tspan305"
       x="356.51599"
       y="-152.48506">p0</tspan></text>
  <text
     xml:space="preserve"
     style="font-style:normal;font-variant:normal;font-weight:normal;font-stretch:normal;font-size:10.6667px;font-family:Nunito;-inkscape-font-specification:'Nunito, Normal';font-variant-ligatures:normal;font-variant-caps:normal;font-variant-numeric:normal;font-variant-east-asian:normal;text-align:start;writing-mode:lr-tb;direction:ltr;text-anchor:start;fill:#fffdfe;fill-opacity:0.7;stroke-width:8"
     x="358.94458"
     y="-182.84235"
     id="text306"><tspan
       sodipodi:role="line"
       id="tspan306"
       x="358.94458"
       y="-182.84235">p1</tspan></text>
  <text
     xml:space="preserve"
     style="font-style:normal;font-variant:normal;font-weight:normal;font-stretch:normal;font-size:10.6667px;font-family:Nunito;-inkscape-font-specification:'Nunito, Normal';font-variant-ligatures:normal;font-variant-caps:normal;font-variant-numeric:normal;font-variant-east-asian:normal;text-align:start;writing-mode:lr-tb;direction:ltr;text-anchor:start;fill:#fffdfe;fill-opacity:0.7;stroke-width:8"
     x="358.45886"
     y="-204.69958"
     id="text307"><tspan
       sodipodi:role="line"
       id="tspan307"
       x="358.45886"
       y="-204.69958">p2</tspan></text>
  <text
     xml:space="preserve"
     style="font-style:normal;font-variant:normal;font-weight:normal;font-stretch:normal;font-size:10.6667px;font-family:Nunito;-inkscape-font-specification:'Nunito, Normal';font-variant-ligatures:normal;font-variant-caps:normal;font-variant-numeric:normal;font-variant-east-asian:normal;text-align:start;writing-mode:lr-tb;direction:ltr;text-anchor:start;fill:#fffdfe;fill-opacity:0.7;stroke-width:8"
     x="360.88745"
     y="-230.44258"
     id="text308"><tspan
       sodipodi:role="line"
       id="tspan308"
       x="360.88745"
       y="-230.44258">p3</tspan></text>
  <text
     xml:space="preserve"
     style="font-style:normal;font-variant:normal;font-weight:normal;font-stretch:normal;font-size:10.6667px;font-family:Nunito;-inkscape-font-specification:'Nunito, Normal';font-variant-ligatures:normal;font-variant-caps:normal;font-variant-numeric:normal;font-variant-east-asian:normal;text-align:start;writing-mode:lr-tb;direction:ltr;text-anchor:start;fill:#fffdfe;fill-opacity:0.7;stroke-width:8"
     x="362.58743"
     y="-257.6427"
     id="text309"><tspan
       sodipodi:role="line"
       id="tspan309"
       x="362.58743"
       y="-257.6427">p4</tspan></text>
  <text
     xml:space="preserve"
     style="font-style:normal;font-variant:normal;font-weight:normal;font-stretch:normal;font-size:10.6667px;font-family:Nunito;-inkscape-font-specification:'Nunito, Normal';font-variant-ligatures:normal;font-variant-caps:normal;font-variant-numeric:normal;font-variant-east-asian:normal;text-align:start;writing-mode:lr-tb;direction:ltr;text-anchor:start;fill:#fffdfe;fill-opacity:0.7;stroke-width:8"
     x="166.84364"
     y="-257.15701"
     id="text310"><tspan
       sodipodi:role="line"
       id="tspan310"
       x="166.84364"
       y="-257.15701">p5</tspan></text>
  <text
     xml:space="preserve"
     style="font-style:normal;font-variant:normal;font-weight:normal;font-stretch:normal;font-size:10.6667px;font-family:Nunito;-inkscape-font-specification:'Nunito, Normal';font-variant-ligatures:normal;font-variant-caps:normal;font-variant-numeric:normal;font-variant-east-asian:normal;text-align:start;writing-mode:lr-tb;direction:ltr;text-anchor:start;fill:#fffdfe;fill-opacity:0.7;stroke-width:8"
     x="166.6008"
     y="-227.77113"
     id="text311"><tspan
       sodipodi:role="line"
       id="tspan311"
       x="166.6008"
       y="-227.77113">p6</tspan></text>
  <text
     xml:space="preserve"
     style="font-style:normal;font-variant:normal;font-weight:normal;font-stretch:normal;font-size:10.6667px;font-family:Nunito;-inkscape-font-specification:'Nunito, Normal';font-variant-ligatures:normal;font-variant-caps:normal;font-variant-numeric:normal;font-variant-east-asian:normal;text-align:start;writing-mode:lr-tb;direction:ltr;text-anchor:start;fill:#fffdfe;fill-opacity:0.7;stroke-width:8"
     x="171.2151"
     y="-194.49954"
     id="text312"><tspan
       sodipodi:role="line"
       id="tspan312"
       x="171.2151"
       y="-194.49954">p7</tspan></text>
  <text
     xml:space="preserve"
     style="font-style:normal;font-variant:normal;font-weight:normal;font-stretch:normal;font-size:10.6667px;font-family:Nunito;-inkscape-font-specification:'Nunito, Normal';font-variant-ligatures:normal;font-variant-caps:normal;font-variant-numeric:normal;font-variant-east-asian:normal;text-align:start;writing-mode:lr-tb;direction:ltr;text-anchor:start;fill:#fffdfe;fill-opacity:0.7;stroke-width:8"
     x="170.97224"
     y="-179.92805"
     id="text313"><tspan
       sodipodi:role="line"
       id="tspan313"
       x="170.97224"
       y="-179.92805">p8</tspan></text>
  <text
     xml:space="preserve"
     style="font-style:normal;font-variant:normal;font-weight:normal;font-stretch:normal;font-size:10.6667px;font-family:Nunito;-inkscape-font-specification:'Nunito, Normal';font-variant-ligatures:normal;font-variant-caps:normal;font-variant-numeric:normal;font-variant-east-asian:normal;text-align:start;writing-mode:lr-tb;direction:ltr;text-anchor:start;fill:#fffdfe;fill-opacity:0.7;stroke-width:8"
     x="169.75797"
     y="-152.48506"
     id="text314"><tspan
       sodipodi:role="line"
       id="tspan314"
       x="169.75797"
       y="-152.48506">p9</tspan></text>
</svg>
