<svg width="500px" viewBox="0 4 170 130" xmlns="http://www.w3.org/2000/svg"><style>svg{background-color:#0007}line{stroke:#fff;stroke-dasharray:2px 3px;stroke-width:1;stroke-linecap:round;stroke-dashoffset:1px}text{fill:#fff;font-size:7px;font-family:sans-serif}circle{r:1.8;stroke:currentColor;fill:currentColor;fill-opacity:0.7;stroke-width:1}.c{color:#e06}.h{color:#9e0}</style><path d="M140,150L140,90C140,65,144,40,150,15L20,15C26,40,30,65,30,90L30,150" fill="#fff1" stroke="#fff6" stroke-width=".5"/>

<line x1="140" y1="90" x2="140" y2="122"/>
<line x1="140" y1="90" x2="140" y2="65"/>
<line x1="150" y1="15" x2="144" y2="40"/>
<line x1="20" y1="15" x2="26" y2="40"/>
<line x1="30" y1="65" x2="30" y2="90"/>
<line x1="30" y1="90" x2="30" y2="122"/>


<circle cx="140" cy="121" class="h"/>
<circle cx="140" cy="90" class="c"/>
<circle cx="140" cy="65" class="h"/>
<circle cx="144" cy="40" class="h"/>
<circle cx="150" cy="15" class="c"/>
<circle cx="20" cy="15" class="c"/>
<circle cx="26" cy="40" class="h"/>
<circle cx="30" cy="65" class="h"/>
<circle cx="30" cy="90" class="c"/>
<circle cx="30" cy="121" class="h"/>


<text x="144" y="123">p0</text>
<text x="144" y="92">p1</text>
<text x="144" y="67">p2</text>
<text x="148" y="42">p3</text>
<text x="154" y="14">p4</text>
<text x="9" y="14">p5</text>
<text x="14" y="42">p6</text>
<text x="18" y="67">p7</text>
<text x="18" y="92">p8</text>
<text x="18" y="123">p9</text>
</svg>