<svg width="500px" viewBox="0 4 170 130" xmlns="http://www.w3.org/2000/svg">
<defs>
    <style>
        svg {
            background-color:#0007;
        }
        line {
            stroke:#fff;
            stroke-dasharray:2px 3px;
            stroke-width:1;
            stroke-linecap:round;
            stroke-dashoffset:1px;
        }
        text {
            fill:#fff;
            font-size:7px;
            font-family:sans-serif;
        }
        circle, .hc {
            r:1.8;
            stroke:currentColor;
            fill:currentColor;
            fill-opacity:0.7;
            stroke-width:1;
        }
        .c {
            color:#e06;
        }
        .h {
            color:#9e0;
        }
        .gs {
            fill: none;
            stroke: #666;
            stroke-dasharray: none;
            stroke-width:0.7;
            stroke-linecap:round;
        }
        .ga {
            fill: none;
            stroke: #666;
            stroke-dasharray: none;
            stroke-width:1;
            stroke-linecap:round;
        }
        .gt {
            fill:#666;
            font-size:6px;
            font-family:sans-serif;
        }
</style>
  <marker
     id="arrow"
     viewBox="0 0 8 12"
     refX="4"
     refY="5"
     markerUnits="strokeWidth"
     markerWidth="8"
     markerHeight="10"
     orient="auto">
    <path d="M 1,2 5,5 1,8" class="ga" />
  </marker>
</defs>
<path d="M150,150L150,15L20,15C26,40,30,65,30,90L30,150" fill="#fff1" stroke="#fff6" stroke-width=".5"/>
<line x1="20" x2="26" y1="15" y2="40"/>
<line x1="30" x2="30" y1="65" y2="90"/>
<line x1="30" x2="30" y1="90" y2="122"/>
<circle cx="150" cy="90" class="c"/>
<circle cx="150" cy="15" class="c"/>
<circle cx="20" cy="15" class="c"/>
<circle cx="26" cy="40" class="h"/>
<circle cx="30" cy="65" class="h"/>
<circle cx="30" cy="90" class="c"/>
<circle cx="30" cy="122" class="h"/>
<text x="154" y="92">p0</text>
<text x="154" y="14">p1</text>
<text x="9" y="14">p2</text>
<text x="14" y="42">p3</text>
<text x="18" y="67">p4</text>
<text x="18" y="92">p5</text>
<text x="18" y="124">p6</text>
<line class="gs" x1="156" x2="156" y1="80" y2="24" marker-end="url(#arrow)"/>
<text x="157" y="56" class="gt">b0</text>
</svg>