<svg width="500px" viewBox="0 4 170 130" xmlns="http://www.w3.org/2000/svg">
	<defs>
		<style>
			svg {
				background-color:#0007;
			}
			line {
				stroke:#fff;
				stroke-dasharray:1px 2px;
				stroke-width:1;
				stroke-linecap:round;
				stroke-dashoffset:1px;
			}
			text {
				fill:#fff;
				font-size:5px;
				font-family:Nunito,sans-serif;
			}
			circle, .hc {
				r:1.8;
				stroke:currentColor;
				fill:currentColor;
				fill-opacity:0.7;
				stroke-width:1;
			}
			.c {
				color:#e06;
			}
			.h {
				color:#9e0;
			}
			.g {
				color:#888;
			}
			.f {
				opacity: 100%
			}
			.gs {
				fill: none;
				stroke: #666;
				stroke-dasharray: 1 1;
				stroke-width:.5;
				stroke-linecap:round;
			}
			.ga {
				fill: none;
				stroke: #666;
				stroke-dasharray: none;
				stroke-width:1;
				stroke-linecap:round;
				stroke-linejoin: round;
			}
			.gt {
				fill:#666;
				font-size:4px;
				font-weight: 700;
				font-family:Nunito,sans-serif;
				transform-box: fill-box;
				transform-origin: center;
			}
		</style>
		<marker
			id="arrow"
			viewBox="0 0 10 12"
			refX="4"
			refY="5"
			markerUnits="strokeWidth"
			markerWidth="10"
			markerHeight="12"
			orient="auto" class="ga">
			<path d="M 4,2 8,5 4,8 M 8, 5 L 1, 5" />
		</marker>
	</defs>
<path d="M140,150L140,90C140,65,144,40,150,15L20,15C26,40,30,65,30,90L30,150" fill="#fff1" stroke="#fff6" stroke-width=".5"/>

<line x1="140" y1="90" x2="140" y2="122"/>
<line x1="140" y1="90" x2="140" y2="65"/>
<line x1="150" y1="15" x2="144" y2="40"/>
<line x1="20" y1="15" x2="26" y2="40"/>
<line x1="30" y1="65" x2="30" y2="90"/>
<line x1="30" y1="90" x2="30" y2="122"/>


<circle cx="140" cy="121" class="h"/>
<circle cx="140" cy="90" class="c"/>
<circle cx="140" cy="65" class="h"/>
<circle cx="144" cy="40" class="h"/>
<circle cx="150" cy="15" class="c"/>
<circle cx="20" cy="15" class="c"/>
<circle cx="26" cy="40" class="h"/>
<circle cx="30" cy="65" class="h"/>
<circle cx="30" cy="90" class="c"/>
<circle cx="30" cy="121" class="h"/>


<text x="144" y="122">p0</text>
<text x="144" y="91">p1</text>
<text x="144" y="66">p2</text>
<text x="148" y="41">p3</text>
<text x="154" y="14">p4</text>
<text x="11" y="14">p5</text>
<text x="16" y="42">p6</text>
<text x="20" y="67">p7</text>
<text x="20" y="92">p8</text>
<text x="20" y="123">p9</text>

<line class="gs" x1="145" y1="117" x2="145" y2="98" marker-end="url(#arrow)"/>
<text x="146" y="109" class="gt">b0</text>
<line class="gs" x1="145" y1="86" x2="145" y2="71" marker-end="url(#arrow)"/>
<text x="146" y="80" class="gt">b1</text>
<line class="gs" x1="151" y1="35" x2="155" y2="20" marker-end="url(#arrow)"/>
<text x="154" y="30" class="gt" transform="rotate(14)">b3</text>
<line class="gs" x1="144" y1="11" x2="26" y2="11" marker-end="url(#arrow)"/>
<text x="82" y="10" class="gt">b4</text>
<line class="gs" x1="15" y1="16" x2="19" y2="33" marker-end="url(#arrow)"/>
<text x="11" y="28" class="gt" transform="rotate(-12)">b5</text>
<line class="gs" x1="24" y1="69" x2="24" y2="83" marker-end="url(#arrow)"/>
<text x="18" y="78" class="gt">b7</text>
<line class="gs" x1="24" y1="94" x2="24" y2="114" marker-end="url(#arrow)"/>
<text x="18" y="106" class="gt">b8</text>
</svg>