<svg width="500px" viewBox="0 4 170 130" xmlns="http://www.w3.org/2000/svg">
<defs>
	<style>
		svg {
			background-color:#0007;
		}
		line {
			stroke:#fff;
			stroke-dasharray:2px 3px;
			stroke-width:1;
			stroke-linecap:round;
			stroke-dashoffset:1px;
		}
		text {
			fill:#fff;
			font-size:6px;
			font-family:Nunito,sans-serif;
		}
		circle, .hc {
			r:1.8;
			stroke:currentColor;
			fill:currentColor;
			fill-opacity:0.7;
			stroke-width:1;
		}
		.c {
			color:#e06;
		}
		.h {
			color:#9e0;
		}
		.gs {
			fill: none;
			stroke: #666;
			stroke-dasharray: 1 1;
			stroke-width:.5;
			stroke-linecap:round;
		}
		.ga {
			fill: none;
			stroke: #666;
			stroke-dasharray: none;
			stroke-width:1;
			stroke-linecap:round;
			stroke-linejoin: round;
		}
		.gt {
			fill:#666;
			font-size:5px;
			font-weight: 600;
			font-family:Nunito,sans-serif;
		}
	</style>
	<marker
		id="arrow"
		viewBox="0 0 10 12"
		refX="4"
		refY="5"
		markerUnits="strokeWidth"
		markerWidth="10"
		markerHeight="12"
		orient="auto" class="ga">
		<path d="M 4,2 8,5 4,8 M 8, 5 L 1, 5" />
	</marker>
</defs>
    <path d="M180,151L180,26L100,26C75,26,45,22,20,15L20,15C28,40,32,65,32,90L32,150" fill="#fff1" stroke="#fff6" stroke-width=".5" />


    <line x1="133" x2="100" y1="26" y2="26" />
    <line x1="100" x2="75" y1="26" y2="26" />
    <line x1="20" x2="45" y1="15" y2="22" />
    <line x1="20" x2="28" y1="15" y2="40" />
    <line x1="32" x2="32" y1="65" y2="90" />
    <line x1="32" x2="32" y1="90" y2="123" />


    <!--<path
    class="hc h" d="M134.273,24.727A1.8,1.8 0 0,1 131.727,27.273"/>
<path class="hc c" d="M134.273,24.727A1.8,1.8 0 0,0 131.727,27.273"/>-->
    <circle cx="133" cy="26" class="h" />
    <circle cx="100" cy="26" class="c" />
    <circle cx="75" cy="26" class="h" />
    <circle cx="45" cy="22" class="h" />
    <circle cx="20" cy="15" class="c" />
    <circle cx="28" cy="40" class="h" />
    <circle cx="32" cy="65" class="h" />
    <circle cx="32" cy="90" class="c" />
    <circle cx="32" cy="123" class="h" />
    <!--<path
    class="hc h" d="M33.273,121.727A1.8,1.8 0 0,1 30.727,124.273"/>
<path class="hc c" d="M33.273,121.727A1.8,1.8 0 0,0 30.727,124.273"/>-->

    <text x="129" y="20">p0</text>
    <text x="96" y="20">p1</text>
    <text x="71" y="20">p2</text>
    <text x="41" y="16">p3</text>
    <text x="9" y="14">p4</text>
    <text x="15" y="42">p5</text>
    <text x="19" y="67">p6</text>
    <text x="19" y="92">p7</text>
    <text x="19" y="125">p8</text>
</svg>