<svg width="500" viewBox="0 0 170 130" xmlns="http://www.w3.org/2000/svg"><style>svg{background-color:#0007}line{stroke:#fff;stroke-dasharray:2px 3px;stroke-width:1;stroke-linecap:round;stroke-dashoffset:1px}text{fill:#fff;font-size:7px;font-family:sans-serif}circle{r:1.8;stroke:currentColor;fill:currentColor;fill-opacity:0.7;stroke-width:1}.c{color:#e06}.h{color:#9e0}</style><path d="M-5,111L9,111C74,111,134,109,160,101C155,85,150,46,147,23C116,30,45,33,9,33L-5,33" fill="#fff1" stroke="#fff6" stroke-width=".5"/><line x1="9" y1="111" x2="74" y2="111"/><line x1="160" y1="101" x2="134" y2="109"/><line x1="160" y1="101" x2="155" y2="85"/><line x1="147" y1="23" x2="150" y2="46"/><line x1="147" y1="23" x2="116" y2="30"/><line x1="9" y1="33" x2="45" y2="33"/><circle cx="9" cy="111" class="c"/><circle cx="74" cy="111" class="h"/><circle cx="134" cy="109" class="h"/><circle cx="160" cy="101" class="c"/><circle cx="155" cy="85" class="h"/><circle cx="150" cy="46" class="h"/><circle cx="147" cy="23" class="c"/><circle cx="116" cy="30" class="h"/><circle cx="45" cy="33" class="h"/><circle cx="9" cy="33" class="c"/><text x="6" y="121">p0</text><text x="71" y="121">p1</text><text x="131" y="119">p2</text><text x="157" y="111">p3</text><text x="160" y="87">p4</text><text x="155" y="48">p5</text><text x="143" y="18">p6</text><text x="113" y="24">p7</text><text x="42" y="27">p8</text><text x="6" y="27">p9</text></svg>