<svg version="1.1" viewBox="0 0 170 130" xmlns="http://www.w3.org/2000/svg">
	<defs>
		<style>
			svg {
				background-color:#0007;
			}
			line {
				stroke:#fff0;
				stroke-dasharray:0.8px 1px;
				stroke-width:0.4;
				stroke-linecap:round;
				stroke-dashoffset:0;
			}
			text {
				fill:#fff;
				font-size:5px;
				font-family:Nunito,sans-serif;
			}
			circle, .hc {
				r:1.8;
				stroke:currentColor;
				fill:currentColor;
				fill-opacity:0.7;
				stroke-width:1;
			}
			.c {
				color:#e06;
			}
			.h {
				color:#9e0;
			}
			.s {
				color:#0cf;
			}
			.g {
				color:#888;
			}
			.f {
				opacity: 50%
			}
			.gs {
				fill: none;
				stroke: #666;
				stroke-dasharray: 1 1;
				stroke-width:.5;
				stroke-linecap:round;
			}
			.ga {
				fill: none;
				stroke: #666;
				stroke-dasharray: none;
				stroke-width:1;
				stroke-linecap:round;
				stroke-linejoin: round;
			}
			.gt {
				fill:#666;
				font-size:4px;
				font-weight: 700;
				font-family:Nunito,sans-serif;
				transform-box: fill-box;
				transform-origin: center;
			}
		</style>
		<marker
			id="arrow"
			viewBox="0 0 10 12"
			refX="4"
			refY="5"
			markerUnits="strokeWidth"
			markerWidth="10"
			markerHeight="12"
			orient="auto" class="ga">
			<path d="M 4,2 8,5 4,8 M 8, 5 L 1, 5" />
		</marker>
	</defs>
	<path class="cf" d="M-267.3 28m323.9 0c-317.3 243.7-333.8 290.9-333.8 347.5 0 67.52 49.4 110.9 158.1 110.9h184.4c93.87 0 133.9-31.84 144.4-171.3-24.7-5.489-58.19-17.57-81.24-29.64-3.843 101.6-19.21 117.5-52.15 117.5h-202c-42.82 0-64.23-9.881-64.23-35.13 0-29.09 19.21-66.97 323.9-291.5 6.038-3.294 10.43-7.136 13.72-10.43l-57.09-41.72-18.66 3.843z" fill="#fff1" stroke="#fff6" stroke-width=".5"/>
	<path class="f" d="m-267.3 28v83.44h336.5v-83.44z" fill="#ffffff11" stroke="#fff2" stroke-width=".5"/>
	<line class="cv" x1="56.59" x2="-260.7" y1="28" y2="271.7"/>
	<line class="cv" x1="-277.2" x2="-277.2" y1="318.9" y2="375.5"/>
	<line class="cv" x1="-277.2" x2="-277.2" y1="375.5" y2="443"/>
	<line class="cv" x1="-227.8" x2="-119.1" y1="486.4" y2="486.4"/>
	<line class="cv" x1="65.38" x2="159.2" y1="486.4" y2="486.4"/>
	<line class="cv" x1="199.3" x2="209.7" y1="454.5" y2="315.1"/>
	<line class="cv" x1="209.7" x2="185" y1="315.1" y2="309.6"/>
	<line class="cv" x1="151.6" x2="128.5" y1="297.5" y2="285.5"/>
	<line class="cv" x1="128.5" x2="124.7" y1="285.5" y2="387"/>
	<line class="cv" x1="109.3" x2="76.36" y1="402.9" y2="402.9"/>
	<line class="cv" x1="-125.7" x2="-168.5" y1="402.9" y2="402.9"/>
	<line class="cv" x1="-189.9" x2="-189.9" y1="393" y2="367.8"/>
	<line class="cv" x1="-189.9" x2="-189.9" y1="367.8" y2="338.7"/>
	<line class="cv" x1="-170.7" x2="134" y1="300.8" y2="76.31"/>
	<line class="cv" x1="134" x2="140" y1="76.31" y2="73.01"/>
	<line class="cv" x1="144.4" x2="147.7" y1="69.17" y2="65.88"/>
	<circle class="g f" cx="69.22" cy="111.4"/>
	<circle class="g f" cx="69.22" cy="28"/>
	<circle class="c" cx="134" cy="76.31"/>
	<circle class="h" cx="140" cy="73.01"/>
	<circle class="h" cx="144.4" cy="69.17"/>
	<circle class="c" cx="147.7" cy="65.88"/>
	<circle class="c" cx="90.63" cy="24.16"/>
	<circle class="c" cx="71.97" cy="28"/>
	<circle class="s" cx="-267.3" cy="28"/>
	<circle class="s" cx="56.59" cy="28"/>
	<text x="134" y="84">0</text>
	<text x="141" y="80">1</text>
	<text x="146" y="75">2</text>
	<text x="151" y="67">3</text>
	<text x="89" y="20">4</text>
	<text x="70" y="24">5</text>
	<text x="55" y="24">6</text>
</svg>
