<svg width="500px" version="1.1" viewBox="0 0 170 130" xmlns="http://www.w3.org/2000/svg">
	<defs>
		<style>
			svg {
				background-color:#0007;
			}
			.handle-line, line {
				stroke:#fff;
				stroke-dasharray:0.8px 1px;
				stroke-width:0.4;
				stroke-linecap:round;
				stroke-dashoffset:0;
			}
			text {
				fill:#fff;
				font-size:5px;
				font-family:Nunito,sans-serif;
				text-anchor: middle;
			}
			circle, .hc {
				r:1.8;
				stroke:currentColor;
				fill:currentColor;
				fill-opacity:0.7;
				stroke-width:1;
			}
			.c {
				color:#e06;
			}
			.h {
				color:#9e0;
			}
			.s {
				color:#0cf;
			}
			.g {
				color:#888;
			}
			.f {
				opacity: 50%
			}
			.gs {
				fill: none;
				stroke: #666;
				stroke-dasharray: 1 1;
				stroke-width:.5;
				stroke-linecap:round;
			}
			.ga {
				fill: none;
				stroke: #666;
				stroke-dasharray: none;
				stroke-width:1;
				stroke-linecap:round;
				stroke-linejoin: round;
			}
			.gt {
				fill:#666;
				font-size:4px;
				font-weight: 700;
				font-family:Nunito,sans-serif;
				transform-box: fill-box;
				transform-origin: center;
			}
		</style>
		<marker
			id="arrow"
			viewBox="0 0 10 12"
			refX="4"
			refY="5"
			markerUnits="strokeWidth"
			markerWidth="10"
			markerHeight="12"
			orient="auto" class="ga">
			<path d="M 4,2 8,5 4,8 M 8, 5 L 1, 5" />
		</marker>
	</defs>
	<path d="m50.79 33.2c-9.768 84.25-32.97 197.8-67.76 267.4l85.47 31.13c40.9-81.19 67.15-184.4 83.64-276.5l4.273-14.65-79.97-27.47-32.36 20.15z" fill="#fff1" stroke="#fff6" stroke-width=".5"/>
	<path class="f" d="m-241.6 107.1h321.7l0.6105-83.03h-346.1l-44.56 26.86z" fill="#ffffff11" stroke="#fff2" stroke-width=".5"/>
	<line x1="50.79" x2="41.03" y1="33.2" y2="117.4"/>
	<line x1="17.83" x2="-16.97" y1="231" y2="300.6"/>
	<line x1="68.5" x2="109.4" y1="331.7" y2="250.5"/>
	<line x1="139.6" x2="152.1" y1="124.4" y2="55.18"/>
	<circle class="g f" cx="80.1" cy="107.1"/>
	<circle class="g f" cx="80.71" cy="24.04"/>
	<circle class="h" cx="41.03" cy="117.4"/>
	<circle class="h" cx="17.83" cy="231"/>
	<circle class="g f" cx="-16.97" cy="300.6"/>
	<circle class="g f" cx="68.5" cy="331.7"/>
	<circle class="h" cx="109.4" cy="250.5"/>
	<circle class="h" cx="139.6" cy="124.4"/>
	<circle class="c" cx="152.1" cy="55.18"/>
	<circle class="c" cx="156.4" cy="40.52"/>
	<circle class="c" cx="76.43" cy="13.05"/>
	<circle class="c" cx="44.08" cy="33.2"/>
	<circle class="s" cx="50.79" cy="33.2"/>
	<text x="157.7" y="57">0</text>
	<text x="161.7" y="42">1</text>
	<text x="76.2" y="8.5">2</text>
	<text x="38.77" y="35">3</text>
	<text x="55.77" y="35">4</text>
	</svg>
