<svg width="500px" viewBox="0 0 170 130" xmlns="http://www.w3.org/2000/svg">
	<defs>
		<style>
			svg {
				background-color:#0007;
			}
			
			.handle-line, line {
				stroke:#fff;
				stroke-dasharray:0.8px 1px;
				stroke-width:0.4;
				stroke-linecap:round;
				stroke-dashoffset:0;
			}
			text {
				fill:#fff;
				font-size:5px;
				font-family:Nunito,sans-serif;
				text-anchor: middle;
			}
			circle, .hc {
				r:1.8;
				stroke:currentColor;
				fill:currentColor;
				fill-opacity:0.7;
				stroke-width:1;
			}
			.c {
				color:#e06;
			}
			.h {
				color:#9e0;
			}
			.s {
				color:#0cf;
			}
			.g {
				color:#888;
			}
			.f {
				opacity: 50%
			}
			.gs {
				fill: none;
				stroke: #666;
				stroke-dasharray: 1 1;
				stroke-width:.5;
				stroke-linecap:round;
			}
			.ga {
				fill: none;
				stroke: #666;
				stroke-dasharray: none;
				stroke-width:1;
				stroke-linecap:round;
				stroke-linejoin: round;
			}
			.gt {
				fill:#666;
				font-size:4px;
				font-weight: 700;
				font-family:Nunito,sans-serif;
				transform-box: fill-box;
				transform-origin: center;
			}
			
			.contour {
				fill: #fff1;
				stroke: #fff6;
				stroke-width: 0.5;
			}
			
			.contour.f {
				stroke: #fff2;
			}
		</style>
		<marker
			id="arrow"
			viewBox="0 0 10 12"
			refX="4"
			refY="5"
			markerUnits="strokeWidth"
			markerWidth="10"
			markerHeight="12"
			orient="auto" class="ga">
			<path d="M 4,2 8,5 4,8 M 8, 5 L 1, 5" />
		</marker>
	</defs>
	<path class="contour" d="m63.24 32.74c0 143.2 0 199.1-1.229 209-1.229 9.22-4.303 11.06-10.45 11.06-4.917 0-25.37 0-33.36-0.6146 9.22 17.82 15.98 51.63 18.44 73.76 21.51 0 58.56-0.6146 77.61-11.06 19.67-9.834 29.5-27.04 30.73-57.16 1.844-25.82 3.073-89.74 3.073-208.4l3.073-14.14-72.08-22.13-15.98 10.45-14.14 9.22z"/>
	<path class="contour f" d="m-259 160.6 33.19 79.29 331.3-143.8-31.96-76.83z"/>
	<line class="cv" x1="63.24" x2="63.24" y1="32.74" y2="125.5"/>
	<line class="cv" x1="148.1" x2="148.1" y1="120.4" y2="49.34"/>
	<circle class="g f" cx="105.5" cy="96.05"/>
	<circle class="g f" cx="73.52" cy="19.22"/>
	<circle class="h" cx="63.24" cy="125.5"/>
	<circle class="h" cx="148.1" cy="120.4"/>
	<circle class="c" cx="148.1" cy="49.34"/>
	<circle class="c" cx="151.1" cy="35.2"/>
	<circle class="c" cx="79.05" cy="13.07"/>
	<circle class="c" cx="63.07" cy="23.52"/>
	<circle class="c" cx="48.94" cy="32.74"/>
	<circle class="s" cx="63.24" cy="32.74"/>
	<text x="154" y="51">0</text>
	<text x="156.7" y="36.8">1</text>
	<text x="78.7" y="8.5">2</text>
	<text x="59" y="20.4">3</text>
	<text x="43" y="34.5">4</text>
	<text x="69" y="34.5">5</text>
</svg>
